solid OpenSCAD_Model
  facet normal 1 -0 0
    outer loop
      vertex 87 -52.47 16.9
      vertex 87 52.47 14.75
      vertex 87 52.47 16.9
    endloop
  endfacet
  facet normal 1 0 0
    outer loop
      vertex 87 52.47 14.75
      vertex 87 -52.47 16.9
      vertex 87 -52.47 14.75
    endloop
  endfacet
  facet normal 0 0 1
    outer loop
      vertex -70.4574 52.47 16.9
      vertex -80.2349 50.4965 16.9
      vertex -70.4574 50.4965 16.9
    endloop
  endfacet
  facet normal -0 0 1
    outer loop
      vertex -83 52.47 16.9
      vertex -80.2349 50.4965 16.9
      vertex -70.4574 52.47 16.9
    endloop
  endfacet
  facet normal 0 0 1
    outer loop
      vertex -81.875 48.75 16.9
      vertex -83 52.47 16.9
      vertex -81.875 -48.75 16.9
    endloop
  endfacet
  facet normal 0 0 1
    outer loop
      vertex -81.8612 48.9693 16.9
      vertex -83 52.47 16.9
      vertex -81.875 48.75 16.9
    endloop
  endfacet
  facet normal 0 0 1
    outer loop
      vertex -81.82 49.1852 16.9
      vertex -83 52.47 16.9
      vertex -81.8612 48.9693 16.9
    endloop
  endfacet
  facet normal 0 0 1
    outer loop
      vertex -81.7521 49.3942 16.9
      vertex -83 52.47 16.9
      vertex -81.82 49.1852 16.9
    endloop
  endfacet
  facet normal 0 0 1
    outer loop
      vertex -81.6585 49.5931 16.9
      vertex -83 52.47 16.9
      vertex -81.7521 49.3942 16.9
    endloop
  endfacet
  facet normal 0 0 1
    outer loop
      vertex -81.5408 49.7786 16.9
      vertex -83 52.47 16.9
      vertex -81.6585 49.5931 16.9
    endloop
  endfacet
  facet normal 0 0 1
    outer loop
      vertex -81.4007 49.948 16.9
      vertex -83 52.47 16.9
      vertex -81.5408 49.7786 16.9
    endloop
  endfacet
  facet normal 0 0 1
    outer loop
      vertex -81.2405 50.0984 16.9
      vertex -83 52.47 16.9
      vertex -81.4007 49.948 16.9
    endloop
  endfacet
  facet normal 0 0 1
    outer loop
      vertex -81.0627 50.2276 16.9
      vertex -83 52.47 16.9
      vertex -81.2405 50.0984 16.9
    endloop
  endfacet
  facet normal 0 0 1
    outer loop
      vertex -80.8701 50.3334 16.9
      vertex -83 52.47 16.9
      vertex -81.0627 50.2276 16.9
    endloop
  endfacet
  facet normal 0 0 1
    outer loop
      vertex -80.6658 50.4143 16.9
      vertex -83 52.47 16.9
      vertex -80.8701 50.3334 16.9
    endloop
  endfacet
  facet normal 0 0 1
    outer loop
      vertex -80.4529 50.469 16.9
      vertex -83 52.47 16.9
      vertex -80.6658 50.4143 16.9
    endloop
  endfacet
  facet normal 0 0 1
    outer loop
      vertex -80.2349 50.4965 16.9
      vertex -83 52.47 16.9
      vertex -80.4529 50.469 16.9
    endloop
  endfacet
  facet normal -0 0 1
    outer loop
      vertex -80.2349 -50.4965 16.9
      vertex -70.4574 -52.47 16.9
      vertex -70.4574 -50.4965 16.9
    endloop
  endfacet
  facet normal 0 0 1
    outer loop
      vertex -83 -52.47 16.9
      vertex -80.2349 -50.4965 16.9
      vertex -80.4529 -50.469 16.9
    endloop
  endfacet
  facet normal 0 0 1
    outer loop
      vertex -80.2349 -50.4965 16.9
      vertex -83 -52.47 16.9
      vertex -70.4574 -52.47 16.9
    endloop
  endfacet
  facet normal 0 0 1
    outer loop
      vertex -80.6658 -50.4143 16.9
      vertex -83 -52.47 16.9
      vertex -80.4529 -50.469 16.9
    endloop
  endfacet
  facet normal 0 0 1
    outer loop
      vertex -80.8701 -50.3334 16.9
      vertex -83 -52.47 16.9
      vertex -80.6658 -50.4143 16.9
    endloop
  endfacet
  facet normal 0 0 1
    outer loop
      vertex -81.0627 -50.2276 16.9
      vertex -83 -52.47 16.9
      vertex -80.8701 -50.3334 16.9
    endloop
  endfacet
  facet normal 0 0 1
    outer loop
      vertex -81.2405 -50.0984 16.9
      vertex -83 -52.47 16.9
      vertex -81.0627 -50.2276 16.9
    endloop
  endfacet
  facet normal 0 0 1
    outer loop
      vertex -81.4007 -49.948 16.9
      vertex -83 -52.47 16.9
      vertex -81.2405 -50.0984 16.9
    endloop
  endfacet
  facet normal 0 0 1
    outer loop
      vertex -81.5408 -49.7786 16.9
      vertex -83 -52.47 16.9
      vertex -81.4007 -49.948 16.9
    endloop
  endfacet
  facet normal 0 0 1
    outer loop
      vertex -81.6585 -49.5931 16.9
      vertex -83 -52.47 16.9
      vertex -81.5408 -49.7786 16.9
    endloop
  endfacet
  facet normal 0 0 1
    outer loop
      vertex -81.7521 -49.3942 16.9
      vertex -83 -52.47 16.9
      vertex -81.6585 -49.5931 16.9
    endloop
  endfacet
  facet normal 0 0 1
    outer loop
      vertex -81.82 -49.1852 16.9
      vertex -83 -52.47 16.9
      vertex -81.7521 -49.3942 16.9
    endloop
  endfacet
  facet normal 0 0 1
    outer loop
      vertex -81.8612 -48.9693 16.9
      vertex -83 -52.47 16.9
      vertex -81.82 -49.1852 16.9
    endloop
  endfacet
  facet normal 0 0 1
    outer loop
      vertex -81.875 -48.75 16.9
      vertex -83 -52.47 16.9
      vertex -81.8612 -48.9693 16.9
    endloop
  endfacet
  facet normal 0 0 1
    outer loop
      vertex -83 -52.47 16.9
      vertex -81.875 -48.75 16.9
      vertex -83 52.47 16.9
    endloop
  endfacet
  facet normal 0 0 1
    outer loop
      vertex 82.1 -50.4965 16.9
      vertex -69.5426 -50.4965 16.9
      vertex 82.1 -50.5 16.9
    endloop
  endfacet
  facet normal 0 0 1
    outer loop
      vertex 87 52.47 16.9
      vertex 86.9843 50.5 16.9
      vertex 87 -52.47 16.9
    endloop
  endfacet
  facet normal 0 0 1
    outer loop
      vertex 87 52.47 16.9
      vertex 82.1 50.5 16.9
      vertex 86.9843 50.5 16.9
    endloop
  endfacet
  facet normal -0 0 1
    outer loop
      vertex -69.5426 52.47 16.9
      vertex 82.1 50.5 16.9
      vertex 87 52.47 16.9
    endloop
  endfacet
  facet normal 0 0 1
    outer loop
      vertex -69.5426 50.4965 16.9
      vertex 82.1 50.5 16.9
      vertex -69.5426 52.47 16.9
    endloop
  endfacet
  facet normal 0 0 1
    outer loop
      vertex 82.1 50.5 16.9
      vertex -69.5426 50.4965 16.9
      vertex 82.1 50.4965 16.9
    endloop
  endfacet
  facet normal -0 0 1
    outer loop
      vertex 86.9843 -50.5 16.9
      vertex 87 -52.47 16.9
      vertex 86.9843 50.5 16.9
    endloop
  endfacet
  facet normal -0 0 1
    outer loop
      vertex 82.1 -50.5 16.9
      vertex 87 -52.47 16.9
      vertex 86.9843 -50.5 16.9
    endloop
  endfacet
  facet normal 0 0 1
    outer loop
      vertex -69.5426 -52.47 16.9
      vertex 82.1 -50.5 16.9
      vertex -69.5426 -50.4965 16.9
    endloop
  endfacet
  facet normal 0 0 1
    outer loop
      vertex 82.1 -50.5 16.9
      vertex -69.5426 -52.47 16.9
      vertex 87 -52.47 16.9
    endloop
  endfacet
  facet normal 0 0 -1
    outer loop
      vertex -83 -52.47 14.75
      vertex 87 52.47 14.75
      vertex 87 -52.47 14.75
    endloop
  endfacet
  facet normal -0 0 -1
    outer loop
      vertex 87 52.47 14.75
      vertex -83 -52.47 14.75
      vertex -83 52.47 14.75
    endloop
  endfacet
  facet normal -1 0 0
    outer loop
      vertex -83 -52.47 14.75
      vertex -83 52.47 16.9
      vertex -83 52.47 14.75
    endloop
  endfacet
  facet normal -1 -0 0
    outer loop
      vertex -83 52.47 16.9
      vertex -83 -52.47 14.75
      vertex -83 -52.47 16.9
    endloop
  endfacet
  facet normal 0 1 -0
    outer loop
      vertex 87 52.47 14.75
      vertex -69.5426 52.47 16.9
      vertex 87 52.47 16.9
    endloop
  endfacet
  facet normal 0 1 0
    outer loop
      vertex -83 52.47 14.75
      vertex -69.5426 52.47 16.9
      vertex 87 52.47 14.75
    endloop
  endfacet
  facet normal 0 1 0
    outer loop
      vertex -69.5426 52.47 16.9
      vertex -83 52.47 14.75
      vertex -70.4574 52.47 16.9
    endloop
  endfacet
  facet normal 0 1 0
    outer loop
      vertex -70.4574 52.47 16.9
      vertex -83 52.47 14.75
      vertex -83 52.47 16.9
    endloop
  endfacet
  facet normal 0 1 0
    outer loop
      vertex -69.9063 52.47 17.1911
      vertex -70.0314 52.47 17.199
      vertex -69.9686 52.47 17.199
    endloop
  endfacet
  facet normal 0 1 0
    outer loop
      vertex -69.9063 52.47 17.1911
      vertex -70.0937 52.47 17.1911
      vertex -70.0314 52.47 17.199
    endloop
  endfacet
  facet normal 0 1 0
    outer loop
      vertex -69.8455 52.47 17.1755
      vertex -70.0937 52.47 17.1911
      vertex -69.9063 52.47 17.1911
    endloop
  endfacet
  facet normal 0 1 0
    outer loop
      vertex -69.8455 52.47 17.1755
      vertex -70.1545 52.47 17.1755
      vertex -70.0937 52.47 17.1911
    endloop
  endfacet
  facet normal 0 1 0
    outer loop
      vertex -69.7871 52.47 17.1524
      vertex -70.1545 52.47 17.1755
      vertex -69.8455 52.47 17.1755
    endloop
  endfacet
  facet normal 0 1 0
    outer loop
      vertex -69.7871 52.47 17.1524
      vertex -70.2129 52.47 17.1524
      vertex -70.1545 52.47 17.1755
    endloop
  endfacet
  facet normal 0 1 0
    outer loop
      vertex -69.7321 52.47 17.1222
      vertex -70.2129 52.47 17.1524
      vertex -69.7871 52.47 17.1524
    endloop
  endfacet
  facet normal 0 1 0
    outer loop
      vertex -69.7321 52.47 17.1222
      vertex -70.2679 52.47 17.1222
      vertex -70.2129 52.47 17.1524
    endloop
  endfacet
  facet normal 0 1 0
    outer loop
      vertex -69.6813 52.47 17.0853
      vertex -70.2679 52.47 17.1222
      vertex -69.7321 52.47 17.1222
    endloop
  endfacet
  facet normal 0 1 0
    outer loop
      vertex -69.6813 52.47 17.0853
      vertex -70.3187 52.47 17.0853
      vertex -70.2679 52.47 17.1222
    endloop
  endfacet
  facet normal 0 1 0
    outer loop
      vertex -69.6355 52.47 17.0423
      vertex -70.3187 52.47 17.0853
      vertex -69.6813 52.47 17.0853
    endloop
  endfacet
  facet normal 0 1 0
    outer loop
      vertex -69.6355 52.47 17.0423
      vertex -70.3645 52.47 17.0423
      vertex -70.3187 52.47 17.0853
    endloop
  endfacet
  facet normal 0 1 0
    outer loop
      vertex -69.5955 52.47 16.9939
      vertex -70.3645 52.47 17.0423
      vertex -69.6355 52.47 17.0423
    endloop
  endfacet
  facet normal 0 1 0
    outer loop
      vertex -69.5955 52.47 16.9939
      vertex -70.4045 52.47 16.9939
      vertex -70.3645 52.47 17.0423
    endloop
  endfacet
  facet normal 0 1 0
    outer loop
      vertex -69.5426 52.47 16.9
      vertex -69.5955 52.47 16.9939
      vertex -69.5618 52.47 16.9409
    endloop
  endfacet
  facet normal 0 1 0
    outer loop
      vertex -69.5955 52.47 16.9939
      vertex -69.5426 52.47 16.9
      vertex -70.4045 52.47 16.9939
    endloop
  endfacet
  facet normal 0 1 0
    outer loop
      vertex -70.4574 52.47 16.9
      vertex -70.4045 52.47 16.9939
      vertex -69.5426 52.47 16.9
    endloop
  endfacet
  facet normal 0 1 0
    outer loop
      vertex -70.4045 52.47 16.9939
      vertex -70.4574 52.47 16.9
      vertex -70.4382 52.47 16.9409
    endloop
  endfacet
  facet normal 0 -1 0
    outer loop
      vertex -83 -52.47 14.75
      vertex -70.4574 -52.47 16.9
      vertex -83 -52.47 16.9
    endloop
  endfacet
  facet normal 0 -1 -0
    outer loop
      vertex -70.4574 -52.47 16.9
      vertex -83 -52.47 14.75
      vertex -69.5426 -52.47 16.9
    endloop
  endfacet
  facet normal 0 -1 0
    outer loop
      vertex 87 -52.47 14.75
      vertex -69.5426 -52.47 16.9
      vertex -83 -52.47 14.75
    endloop
  endfacet
  facet normal 0 -1 0
    outer loop
      vertex -69.5426 -52.47 16.9
      vertex 87 -52.47 14.75
      vertex 87 -52.47 16.9
    endloop
  endfacet
  facet normal 0 -1 0
    outer loop
      vertex -70.0937 -52.47 17.1911
      vertex -69.9686 -52.47 17.199
      vertex -70.0314 -52.47 17.199
    endloop
  endfacet
  facet normal 0 -1 0
    outer loop
      vertex -70.0937 -52.47 17.1911
      vertex -69.9063 -52.47 17.1911
      vertex -69.9686 -52.47 17.199
    endloop
  endfacet
  facet normal 0 -1 0
    outer loop
      vertex -70.1545 -52.47 17.1755
      vertex -69.9063 -52.47 17.1911
      vertex -70.0937 -52.47 17.1911
    endloop
  endfacet
  facet normal 0 -1 0
    outer loop
      vertex -70.1545 -52.47 17.1755
      vertex -69.8455 -52.47 17.1755
      vertex -69.9063 -52.47 17.1911
    endloop
  endfacet
  facet normal 0 -1 0
    outer loop
      vertex -70.2129 -52.47 17.1524
      vertex -69.8455 -52.47 17.1755
      vertex -70.1545 -52.47 17.1755
    endloop
  endfacet
  facet normal 0 -1 0
    outer loop
      vertex -70.2129 -52.47 17.1524
      vertex -69.7871 -52.47 17.1524
      vertex -69.8455 -52.47 17.1755
    endloop
  endfacet
  facet normal 0 -1 0
    outer loop
      vertex -70.2679 -52.47 17.1222
      vertex -69.7871 -52.47 17.1524
      vertex -70.2129 -52.47 17.1524
    endloop
  endfacet
  facet normal 0 -1 0
    outer loop
      vertex -70.2679 -52.47 17.1222
      vertex -69.7321 -52.47 17.1222
      vertex -69.7871 -52.47 17.1524
    endloop
  endfacet
  facet normal 0 -1 0
    outer loop
      vertex -70.3187 -52.47 17.0853
      vertex -69.7321 -52.47 17.1222
      vertex -70.2679 -52.47 17.1222
    endloop
  endfacet
  facet normal 0 -1 0
    outer loop
      vertex -70.3187 -52.47 17.0853
      vertex -69.6813 -52.47 17.0853
      vertex -69.7321 -52.47 17.1222
    endloop
  endfacet
  facet normal 0 -1 0
    outer loop
      vertex -70.3645 -52.47 17.0423
      vertex -69.6813 -52.47 17.0853
      vertex -70.3187 -52.47 17.0853
    endloop
  endfacet
  facet normal 0 -1 0
    outer loop
      vertex -70.3645 -52.47 17.0423
      vertex -69.6355 -52.47 17.0423
      vertex -69.6813 -52.47 17.0853
    endloop
  endfacet
  facet normal 0 -1 0
    outer loop
      vertex -70.4045 -52.47 16.9939
      vertex -69.6355 -52.47 17.0423
      vertex -70.3645 -52.47 17.0423
    endloop
  endfacet
  facet normal 0 -1 0
    outer loop
      vertex -70.4045 -52.47 16.9939
      vertex -69.5955 -52.47 16.9939
      vertex -69.6355 -52.47 17.0423
    endloop
  endfacet
  facet normal 0 -1 0
    outer loop
      vertex -70.4574 -52.47 16.9
      vertex -70.4045 -52.47 16.9939
      vertex -70.4382 -52.47 16.9409
    endloop
  endfacet
  facet normal 0 -1 -0
    outer loop
      vertex -70.4045 -52.47 16.9939
      vertex -70.4574 -52.47 16.9
      vertex -69.5955 -52.47 16.9939
    endloop
  endfacet
  facet normal 0 -1 0
    outer loop
      vertex -69.5426 -52.47 16.9
      vertex -69.5955 -52.47 16.9939
      vertex -70.4574 -52.47 16.9
    endloop
  endfacet
  facet normal 0 -1 0
    outer loop
      vertex -69.5955 -52.47 16.9939
      vertex -69.5426 -52.47 16.9
      vertex -69.5618 -52.47 16.9409
    endloop
  endfacet
  facet normal -0.125155 0.992137 0
    outer loop
      vertex -80.2349 50.4965 16.9
      vertex -80.4529 50.469 18.25
      vertex -80.2349 50.4965 18.25
    endloop
  endfacet
  facet normal -0.125155 0.992137 0
    outer loop
      vertex -80.4529 50.469 18.25
      vertex -80.2349 50.4965 16.9
      vertex -80.4529 50.469 16.9
    endloop
  endfacet
  facet normal 0.125155 0.992137 -0
    outer loop
      vertex 84.4529 50.469 18.245
      vertex 84.2349 50.4965 18.25
      vertex 84.4529 50.469 18.25
    endloop
  endfacet
  facet normal 0.125155 0.992137 0
    outer loop
      vertex 84.2349 50.4965 18.25
      vertex 84.4529 50.469 18.245
      vertex 84.2349 50.4965 18.245
    endloop
  endfacet
  facet normal 0 1 0
    outer loop
      vertex 82.1 50.4965 18.245
      vertex -69.9063 50.4965 17.1911
      vertex -69.9686 50.4965 17.199
    endloop
  endfacet
  facet normal 0 1 0
    outer loop
      vertex 82.1 50.4965 18.245
      vertex -69.8455 50.4965 17.1755
      vertex -69.9063 50.4965 17.1911
    endloop
  endfacet
  facet normal 0 1 0
    outer loop
      vertex 82.1 50.4965 18.245
      vertex -69.7871 50.4965 17.1524
      vertex -69.8455 50.4965 17.1755
    endloop
  endfacet
  facet normal 0 1 0
    outer loop
      vertex 82.1 50.4965 18.245
      vertex -69.7321 50.4965 17.1222
      vertex -69.7871 50.4965 17.1524
    endloop
  endfacet
  facet normal 0 1 0
    outer loop
      vertex 82.1 50.4965 18.245
      vertex -69.6813 50.4965 17.0853
      vertex -69.7321 50.4965 17.1222
    endloop
  endfacet
  facet normal 0 1 0
    outer loop
      vertex 82.1 50.4965 18.245
      vertex -69.6355 50.4965 17.0423
      vertex -69.6813 50.4965 17.0853
    endloop
  endfacet
  facet normal 0 1 0
    outer loop
      vertex 82.1 50.4965 18.245
      vertex -69.5955 50.4965 16.9939
      vertex -69.6355 50.4965 17.0423
    endloop
  endfacet
  facet normal 0 1 0
    outer loop
      vertex 82.1 50.4965 18.245
      vertex -69.5618 50.4965 16.9409
      vertex -69.5955 50.4965 16.9939
    endloop
  endfacet
  facet normal 0 1 0
    outer loop
      vertex -69.5426 50.4965 16.9
      vertex 82.1 50.4965 18.245
      vertex 82.1 50.4965 16.9
    endloop
  endfacet
  facet normal 0 1 0
    outer loop
      vertex 82.1 50.4965 18.245
      vertex -69.5426 50.4965 16.9
      vertex -69.5618 50.4965 16.9409
    endloop
  endfacet
  facet normal 0 1 0
    outer loop
      vertex 82.1 50.4965 18.245
      vertex 84.2349 50.4965 18.25
      vertex 84.2349 50.4965 18.245
    endloop
  endfacet
  facet normal 0 1 0
    outer loop
      vertex 84.2349 50.4965 18.25
      vertex 82.1 50.4965 18.245
      vertex -80.2349 50.4965 18.25
    endloop
  endfacet
  facet normal 0 1 -0
    outer loop
      vertex -69.9686 50.4965 17.199
      vertex -80.2349 50.4965 18.25
      vertex 82.1 50.4965 18.245
    endloop
  endfacet
  facet normal 0 1 -0
    outer loop
      vertex -70.0314 50.4965 17.199
      vertex -80.2349 50.4965 18.25
      vertex -69.9686 50.4965 17.199
    endloop
  endfacet
  facet normal 0 1 -0
    outer loop
      vertex -70.0937 50.4965 17.1911
      vertex -80.2349 50.4965 18.25
      vertex -70.0314 50.4965 17.199
    endloop
  endfacet
  facet normal 0 1 -0
    outer loop
      vertex -70.1545 50.4965 17.1755
      vertex -80.2349 50.4965 18.25
      vertex -70.0937 50.4965 17.1911
    endloop
  endfacet
  facet normal 0 1 -0
    outer loop
      vertex -70.2129 50.4965 17.1524
      vertex -80.2349 50.4965 18.25
      vertex -70.1545 50.4965 17.1755
    endloop
  endfacet
  facet normal 0 1 -0
    outer loop
      vertex -70.2679 50.4965 17.1222
      vertex -80.2349 50.4965 18.25
      vertex -70.2129 50.4965 17.1524
    endloop
  endfacet
  facet normal 0 1 -0
    outer loop
      vertex -70.3187 50.4965 17.0853
      vertex -80.2349 50.4965 18.25
      vertex -70.2679 50.4965 17.1222
    endloop
  endfacet
  facet normal 0 1 -0
    outer loop
      vertex -70.3645 50.4965 17.0423
      vertex -80.2349 50.4965 18.25
      vertex -70.3187 50.4965 17.0853
    endloop
  endfacet
  facet normal 0 1 -0
    outer loop
      vertex -70.4045 50.4965 16.9939
      vertex -80.2349 50.4965 18.25
      vertex -70.3645 50.4965 17.0423
    endloop
  endfacet
  facet normal 0 1 -0
    outer loop
      vertex -70.4382 50.4965 16.9409
      vertex -80.2349 50.4965 18.25
      vertex -70.4045 50.4965 16.9939
    endloop
  endfacet
  facet normal 0 1 -0
    outer loop
      vertex -70.4574 50.4965 16.9
      vertex -80.2349 50.4965 18.25
      vertex -70.4382 50.4965 16.9409
    endloop
  endfacet
  facet normal 0 1 0
    outer loop
      vertex -80.2349 50.4965 18.25
      vertex -70.4574 50.4965 16.9
      vertex -80.2349 50.4965 16.9
    endloop
  endfacet
  facet normal 0.998026 0.0628033 0
    outer loop
      vertex 85.875 48.75 18.25
      vertex 85.8612 48.9693 18.245
      vertex 85.8612 48.9693 18.25
    endloop
  endfacet
  facet normal 0.998026 0.0628033 0
    outer loop
      vertex 85.8612 48.9693 18.245
      vertex 85.875 48.75 18.25
      vertex 85.875 48.75 18.245
    endloop
  endfacet
  facet normal -0.904819 -0.425797 0
    outer loop
      vertex -81.6585 -49.5931 16.9
      vertex -81.7521 -49.3942 18.25
      vertex -81.7521 -49.3942 16.9
    endloop
  endfacet
  facet normal -0.904819 -0.425797 0
    outer loop
      vertex -81.7521 -49.3942 18.25
      vertex -81.6585 -49.5931 16.9
      vertex -81.6585 -49.5931 18.25
    endloop
  endfacet
  facet normal -1 0 0
    outer loop
      vertex -81.875 -48.75 16.9
      vertex -81.875 48.75 18.25
      vertex -81.875 48.75 16.9
    endloop
  endfacet
  facet normal -1 -0 0
    outer loop
      vertex -81.875 48.75 18.25
      vertex -81.875 -48.75 16.9
      vertex -81.875 -48.75 18.25
    endloop
  endfacet
  facet normal -0.998026 -0.0628033 0
    outer loop
      vertex -81.8612 -48.9693 16.9
      vertex -81.875 -48.75 18.25
      vertex -81.875 -48.75 16.9
    endloop
  endfacet
  facet normal -0.998026 -0.0628033 0
    outer loop
      vertex -81.875 -48.75 18.25
      vertex -81.8612 -48.9693 16.9
      vertex -81.8612 -48.9693 18.25
    endloop
  endfacet
  facet normal 0.481464 -0.876466 0
    outer loop
      vertex 84.8701 -50.3334 18.245
      vertex 85.0627 -50.2276 18.25
      vertex 84.8701 -50.3334 18.25
    endloop
  endfacet
  facet normal 0.481464 -0.876466 0
    outer loop
      vertex 85.0627 -50.2276 18.25
      vertex 84.8701 -50.3334 18.245
      vertex 85.0627 -50.2276 18.245
    endloop
  endfacet
  facet normal 1 -0 0
    outer loop
      vertex 85.875 -48.75 18.25
      vertex 85.875 48.75 18.245
      vertex 85.875 48.75 18.25
    endloop
  endfacet
  facet normal 1 0 0
    outer loop
      vertex 85.875 48.75 18.245
      vertex 85.875 -48.75 18.25
      vertex 85.875 -48.75 18.245
    endloop
  endfacet
  facet normal -0.982275 0.187447 0
    outer loop
      vertex -81.8612 48.9693 16.9
      vertex -81.82 49.1852 18.25
      vertex -81.82 49.1852 16.9
    endloop
  endfacet
  facet normal -0.982275 0.187447 0
    outer loop
      vertex -81.82 49.1852 18.25
      vertex -81.8612 48.9693 16.9
      vertex -81.8612 48.9693 18.25
    endloop
  endfacet
  facet normal -0.951068 0.308983 0
    outer loop
      vertex -81.82 49.1852 16.9
      vertex -81.7521 49.3942 18.25
      vertex -81.7521 49.3942 16.9
    endloop
  endfacet
  facet normal -0.951068 0.308983 0
    outer loop
      vertex -81.7521 49.3942 18.25
      vertex -81.82 49.1852 16.9
      vertex -81.82 49.1852 18.25
    endloop
  endfacet
  facet normal -0.248846 0.968543 0
    outer loop
      vertex -80.4529 50.469 16.9
      vertex -80.6658 50.4143 18.25
      vertex -80.4529 50.469 18.25
    endloop
  endfacet
  facet normal -0.248846 0.968543 0
    outer loop
      vertex -80.6658 50.4143 18.25
      vertex -80.4529 50.469 16.9
      vertex -80.6658 50.4143 16.9
    endloop
  endfacet
  facet normal 0.368171 0.929758 -0
    outer loop
      vertex 84.8701 50.3334 18.245
      vertex 84.6658 50.4143 18.25
      vertex 84.8701 50.3334 18.25
    endloop
  endfacet
  facet normal 0.368171 0.929758 0
    outer loop
      vertex 84.6658 50.4143 18.25
      vertex 84.8701 50.3334 18.245
      vertex 84.6658 50.4143 18.245
    endloop
  endfacet
  facet normal -0.125155 -0.992137 0
    outer loop
      vertex -80.4529 -50.469 16.9
      vertex -80.2349 -50.4965 18.25
      vertex -80.4529 -50.469 18.25
    endloop
  endfacet
  facet normal -0.125155 -0.992137 -0
    outer loop
      vertex -80.2349 -50.4965 18.25
      vertex -80.4529 -50.469 16.9
      vertex -80.2349 -50.4965 16.9
    endloop
  endfacet
  facet normal 0 -1 0
    outer loop
      vertex -80.2349 -50.4965 18.25
      vertex 82.1 -50.4965 18.245
      vertex 84.2349 -50.4965 18.25
    endloop
  endfacet
  facet normal 0 -1 0
    outer loop
      vertex -69.9686 -50.4965 17.199
      vertex -80.2349 -50.4965 18.25
      vertex -70.0314 -50.4965 17.199
    endloop
  endfacet
  facet normal 0 -1 0
    outer loop
      vertex -80.2349 -50.4965 18.25
      vertex -70.0937 -50.4965 17.1911
      vertex -70.0314 -50.4965 17.199
    endloop
  endfacet
  facet normal 0 -1 0
    outer loop
      vertex -80.2349 -50.4965 18.25
      vertex -70.1545 -50.4965 17.1755
      vertex -70.0937 -50.4965 17.1911
    endloop
  endfacet
  facet normal 0 -1 0
    outer loop
      vertex -80.2349 -50.4965 18.25
      vertex -70.2129 -50.4965 17.1524
      vertex -70.1545 -50.4965 17.1755
    endloop
  endfacet
  facet normal 0 -1 0
    outer loop
      vertex -80.2349 -50.4965 18.25
      vertex -70.2679 -50.4965 17.1222
      vertex -70.2129 -50.4965 17.1524
    endloop
  endfacet
  facet normal 0 -1 0
    outer loop
      vertex -80.2349 -50.4965 18.25
      vertex -70.3187 -50.4965 17.0853
      vertex -70.2679 -50.4965 17.1222
    endloop
  endfacet
  facet normal 0 -1 0
    outer loop
      vertex -80.2349 -50.4965 18.25
      vertex -70.3645 -50.4965 17.0423
      vertex -70.3187 -50.4965 17.0853
    endloop
  endfacet
  facet normal 0 -1 0
    outer loop
      vertex -80.2349 -50.4965 18.25
      vertex -70.4045 -50.4965 16.9939
      vertex -70.3645 -50.4965 17.0423
    endloop
  endfacet
  facet normal 0 -1 0
    outer loop
      vertex -80.2349 -50.4965 18.25
      vertex -70.4382 -50.4965 16.9409
      vertex -70.4045 -50.4965 16.9939
    endloop
  endfacet
  facet normal 0 -1 0
    outer loop
      vertex -70.4574 -50.4965 16.9
      vertex -80.2349 -50.4965 18.25
      vertex -80.2349 -50.4965 16.9
    endloop
  endfacet
  facet normal 0 -1 0
    outer loop
      vertex -80.2349 -50.4965 18.25
      vertex -70.4574 -50.4965 16.9
      vertex -70.4382 -50.4965 16.9409
    endloop
  endfacet
  facet normal 0 -1 -0
    outer loop
      vertex 84.2349 -50.4965 18.25
      vertex 82.1 -50.4965 18.245
      vertex 84.2349 -50.4965 18.245
    endloop
  endfacet
  facet normal 0 -1 0
    outer loop
      vertex -80.2349 -50.4965 18.25
      vertex -69.9686 -50.4965 17.199
      vertex 82.1 -50.4965 18.245
    endloop
  endfacet
  facet normal 0 -1 0
    outer loop
      vertex -69.9063 -50.4965 17.1911
      vertex 82.1 -50.4965 18.245
      vertex -69.9686 -50.4965 17.199
    endloop
  endfacet
  facet normal 0 -1 0
    outer loop
      vertex -69.8455 -50.4965 17.1755
      vertex 82.1 -50.4965 18.245
      vertex -69.9063 -50.4965 17.1911
    endloop
  endfacet
  facet normal 0 -1 0
    outer loop
      vertex -69.7871 -50.4965 17.1524
      vertex 82.1 -50.4965 18.245
      vertex -69.8455 -50.4965 17.1755
    endloop
  endfacet
  facet normal 0 -1 0
    outer loop
      vertex -69.7321 -50.4965 17.1222
      vertex 82.1 -50.4965 18.245
      vertex -69.7871 -50.4965 17.1524
    endloop
  endfacet
  facet normal 0 -1 0
    outer loop
      vertex -69.6813 -50.4965 17.0853
      vertex 82.1 -50.4965 18.245
      vertex -69.7321 -50.4965 17.1222
    endloop
  endfacet
  facet normal 0 -1 0
    outer loop
      vertex -69.6355 -50.4965 17.0423
      vertex 82.1 -50.4965 18.245
      vertex -69.6813 -50.4965 17.0853
    endloop
  endfacet
  facet normal 0 -1 0
    outer loop
      vertex -69.5955 -50.4965 16.9939
      vertex 82.1 -50.4965 18.245
      vertex -69.6355 -50.4965 17.0423
    endloop
  endfacet
  facet normal 0 -1 0
    outer loop
      vertex -69.5618 -50.4965 16.9409
      vertex 82.1 -50.4965 18.245
      vertex -69.5955 -50.4965 16.9939
    endloop
  endfacet
  facet normal 0 -1 0
    outer loop
      vertex -69.5426 -50.4965 16.9
      vertex 82.1 -50.4965 18.245
      vertex -69.5618 -50.4965 16.9409
    endloop
  endfacet
  facet normal 0 -1 -0
    outer loop
      vertex 82.1 -50.4965 18.245
      vertex -69.5426 -50.4965 16.9
      vertex 82.1 -50.4965 16.9
    endloop
  endfacet
  facet normal 0.844373 -0.535756 0
    outer loop
      vertex 85.5408 -49.7786 18.25
      vertex 85.6585 -49.5931 18.245
      vertex 85.6585 -49.5931 18.25
    endloop
  endfacet
  facet normal 0.844373 -0.535756 0
    outer loop
      vertex 85.6585 -49.5931 18.245
      vertex 85.5408 -49.7786 18.25
      vertex 85.5408 -49.7786 18.245
    endloop
  endfacet
  facet normal -0.982275 -0.187447 0
    outer loop
      vertex -81.82 -49.1852 16.9
      vertex -81.8612 -48.9693 18.25
      vertex -81.8612 -48.9693 16.9
    endloop
  endfacet
  facet normal -0.982275 -0.187447 0
    outer loop
      vertex -81.8612 -48.9693 18.25
      vertex -81.82 -49.1852 16.9
      vertex -81.82 -49.1852 18.25
    endloop
  endfacet
  facet normal 0.125155 -0.992137 0
    outer loop
      vertex 84.2349 -50.4965 18.245
      vertex 84.4529 -50.469 18.25
      vertex 84.2349 -50.4965 18.25
    endloop
  endfacet
  facet normal 0.125155 -0.992137 0
    outer loop
      vertex 84.4529 -50.469 18.25
      vertex 84.2349 -50.4965 18.245
      vertex 84.4529 -50.469 18.245
    endloop
  endfacet
  facet normal 0.770602 0.637316 0
    outer loop
      vertex 85.5408 49.7786 18.25
      vertex 85.4007 49.948 18.245
      vertex 85.4007 49.948 18.25
    endloop
  endfacet
  facet normal 0.770602 0.637316 0
    outer loop
      vertex 85.4007 49.948 18.245
      vertex 85.5408 49.7786 18.25
      vertex 85.5408 49.7786 18.245
    endloop
  endfacet
  facet normal -0.587847 0.808972 0
    outer loop
      vertex -81.0627 50.2276 16.9
      vertex -81.2405 50.0984 18.25
      vertex -81.0627 50.2276 18.25
    endloop
  endfacet
  facet normal -0.587847 0.808972 0
    outer loop
      vertex -81.2405 50.0984 18.25
      vertex -81.0627 50.2276 16.9
      vertex -81.2405 50.0984 16.9
    endloop
  endfacet
  facet normal -0.481464 -0.876466 0
    outer loop
      vertex -81.0627 -50.2276 16.9
      vertex -80.8701 -50.3334 18.25
      vertex -81.0627 -50.2276 18.25
    endloop
  endfacet
  facet normal -0.481464 -0.876466 -0
    outer loop
      vertex -80.8701 -50.3334 18.25
      vertex -81.0627 -50.2276 16.9
      vertex -80.8701 -50.3334 16.9
    endloop
  endfacet
  facet normal 0.481464 0.876466 -0
    outer loop
      vertex 85.0627 50.2276 18.245
      vertex 84.8701 50.3334 18.25
      vertex 85.0627 50.2276 18.25
    endloop
  endfacet
  facet normal 0.481464 0.876466 0
    outer loop
      vertex 84.8701 50.3334 18.25
      vertex 85.0627 50.2276 18.245
      vertex 84.8701 50.3334 18.245
    endloop
  endfacet
  facet normal 0.587847 -0.808972 0
    outer loop
      vertex 85.0627 -50.2276 18.245
      vertex 85.2405 -50.0984 18.25
      vertex 85.0627 -50.2276 18.25
    endloop
  endfacet
  facet normal 0.587847 -0.808972 0
    outer loop
      vertex 85.2405 -50.0984 18.25
      vertex 85.0627 -50.2276 18.245
      vertex 85.2405 -50.0984 18.245
    endloop
  endfacet
  facet normal 0.982275 0.187447 0
    outer loop
      vertex 85.8612 48.9693 18.25
      vertex 85.82 49.1852 18.245
      vertex 85.82 49.1852 18.25
    endloop
  endfacet
  facet normal 0.982275 0.187447 0
    outer loop
      vertex 85.82 49.1852 18.245
      vertex 85.8612 48.9693 18.25
      vertex 85.8612 48.9693 18.245
    endloop
  endfacet
  facet normal -0.951068 -0.308983 0
    outer loop
      vertex -81.7521 -49.3942 16.9
      vertex -81.82 -49.1852 18.25
      vertex -81.82 -49.1852 16.9
    endloop
  endfacet
  facet normal -0.951068 -0.308983 0
    outer loop
      vertex -81.82 -49.1852 18.25
      vertex -81.7521 -49.3942 16.9
      vertex -81.7521 -49.3942 18.25
    endloop
  endfacet
  facet normal -0.844373 0.535756 0
    outer loop
      vertex -81.6585 49.5931 16.9
      vertex -81.5408 49.7786 18.25
      vertex -81.5408 49.7786 16.9
    endloop
  endfacet
  facet normal -0.844373 0.535756 0
    outer loop
      vertex -81.5408 49.7786 18.25
      vertex -81.6585 49.5931 16.9
      vertex -81.6585 49.5931 18.25
    endloop
  endfacet
  facet normal 0.248846 -0.968543 0
    outer loop
      vertex 84.4529 -50.469 18.245
      vertex 84.6658 -50.4143 18.25
      vertex 84.4529 -50.469 18.25
    endloop
  endfacet
  facet normal 0.248846 -0.968543 0
    outer loop
      vertex 84.6658 -50.4143 18.25
      vertex 84.4529 -50.469 18.245
      vertex 84.6658 -50.4143 18.245
    endloop
  endfacet
  facet normal -0.684456 -0.729054 0
    outer loop
      vertex -81.4007 -49.948 16.9
      vertex -81.2405 -50.0984 18.25
      vertex -81.4007 -49.948 18.25
    endloop
  endfacet
  facet normal -0.684456 -0.729054 -0
    outer loop
      vertex -81.2405 -50.0984 18.25
      vertex -81.4007 -49.948 16.9
      vertex -81.2405 -50.0984 16.9
    endloop
  endfacet
  facet normal -0.248846 -0.968543 0
    outer loop
      vertex -80.6658 -50.4143 16.9
      vertex -80.4529 -50.469 18.25
      vertex -80.6658 -50.4143 18.25
    endloop
  endfacet
  facet normal -0.248846 -0.968543 -0
    outer loop
      vertex -80.4529 -50.469 18.25
      vertex -80.6658 -50.4143 16.9
      vertex -80.4529 -50.469 16.9
    endloop
  endfacet
  facet normal -0.587847 -0.808972 0
    outer loop
      vertex -81.2405 -50.0984 16.9
      vertex -81.0627 -50.2276 18.25
      vertex -81.2405 -50.0984 18.25
    endloop
  endfacet
  facet normal -0.587847 -0.808972 -0
    outer loop
      vertex -81.0627 -50.2276 18.25
      vertex -81.2405 -50.0984 16.9
      vertex -81.0627 -50.2276 16.9
    endloop
  endfacet
  facet normal -0.368171 -0.929758 0
    outer loop
      vertex -80.8701 -50.3334 16.9
      vertex -80.6658 -50.4143 18.25
      vertex -80.8701 -50.3334 18.25
    endloop
  endfacet
  facet normal -0.368171 -0.929758 -0
    outer loop
      vertex -80.6658 -50.4143 18.25
      vertex -80.8701 -50.3334 16.9
      vertex -80.6658 -50.4143 16.9
    endloop
  endfacet
  facet normal 0.770602 -0.637316 0
    outer loop
      vertex 85.4007 -49.948 18.25
      vertex 85.5408 -49.7786 18.245
      vertex 85.5408 -49.7786 18.25
    endloop
  endfacet
  facet normal 0.770602 -0.637316 0
    outer loop
      vertex 85.5408 -49.7786 18.245
      vertex 85.4007 -49.948 18.25
      vertex 85.4007 -49.948 18.245
    endloop
  endfacet
  facet normal 0.684456 0.729054 -0
    outer loop
      vertex 85.4007 49.948 18.245
      vertex 85.2405 50.0984 18.25
      vertex 85.4007 49.948 18.25
    endloop
  endfacet
  facet normal 0.684456 0.729054 0
    outer loop
      vertex 85.2405 50.0984 18.25
      vertex 85.4007 49.948 18.245
      vertex 85.2405 50.0984 18.245
    endloop
  endfacet
  facet normal -0.684456 0.729054 0
    outer loop
      vertex -81.2405 50.0984 16.9
      vertex -81.4007 49.948 18.25
      vertex -81.2405 50.0984 18.25
    endloop
  endfacet
  facet normal -0.684456 0.729054 0
    outer loop
      vertex -81.4007 49.948 18.25
      vertex -81.2405 50.0984 16.9
      vertex -81.4007 49.948 16.9
    endloop
  endfacet
  facet normal 0.248846 0.968543 -0
    outer loop
      vertex 84.6658 50.4143 18.245
      vertex 84.4529 50.469 18.25
      vertex 84.6658 50.4143 18.25
    endloop
  endfacet
  facet normal 0.248846 0.968543 0
    outer loop
      vertex 84.4529 50.469 18.25
      vertex 84.6658 50.4143 18.245
      vertex 84.4529 50.469 18.245
    endloop
  endfacet
  facet normal 0.587847 0.808972 -0
    outer loop
      vertex 85.2405 50.0984 18.245
      vertex 85.0627 50.2276 18.25
      vertex 85.2405 50.0984 18.25
    endloop
  endfacet
  facet normal 0.587847 0.808972 0
    outer loop
      vertex 85.0627 50.2276 18.25
      vertex 85.2405 50.0984 18.245
      vertex 85.0627 50.2276 18.245
    endloop
  endfacet
  facet normal 0.951068 0.308983 0
    outer loop
      vertex 85.82 49.1852 18.25
      vertex 85.7521 49.3942 18.245
      vertex 85.7521 49.3942 18.25
    endloop
  endfacet
  facet normal 0.951068 0.308983 0
    outer loop
      vertex 85.7521 49.3942 18.245
      vertex 85.82 49.1852 18.25
      vertex 85.82 49.1852 18.245
    endloop
  endfacet
  facet normal -0.998026 0.0628033 0
    outer loop
      vertex -81.875 48.75 16.9
      vertex -81.8612 48.9693 18.25
      vertex -81.8612 48.9693 16.9
    endloop
  endfacet
  facet normal -0.998026 0.0628033 0
    outer loop
      vertex -81.8612 48.9693 18.25
      vertex -81.875 48.75 16.9
      vertex -81.875 48.75 18.25
    endloop
  endfacet
  facet normal -0.770602 -0.637316 0
    outer loop
      vertex -81.4007 -49.948 16.9
      vertex -81.5408 -49.7786 18.25
      vertex -81.5408 -49.7786 16.9
    endloop
  endfacet
  facet normal -0.770602 -0.637316 0
    outer loop
      vertex -81.5408 -49.7786 18.25
      vertex -81.4007 -49.948 16.9
      vertex -81.4007 -49.948 18.25
    endloop
  endfacet
  facet normal -0.904819 0.425797 0
    outer loop
      vertex -81.7521 49.3942 16.9
      vertex -81.6585 49.5931 18.25
      vertex -81.6585 49.5931 16.9
    endloop
  endfacet
  facet normal -0.904819 0.425797 0
    outer loop
      vertex -81.6585 49.5931 18.25
      vertex -81.7521 49.3942 16.9
      vertex -81.7521 49.3942 18.25
    endloop
  endfacet
  facet normal -0.844373 -0.535756 0
    outer loop
      vertex -81.5408 -49.7786 16.9
      vertex -81.6585 -49.5931 18.25
      vertex -81.6585 -49.5931 16.9
    endloop
  endfacet
  facet normal -0.844373 -0.535756 0
    outer loop
      vertex -81.6585 -49.5931 18.25
      vertex -81.5408 -49.7786 16.9
      vertex -81.5408 -49.7786 18.25
    endloop
  endfacet
  facet normal 0.368171 -0.929758 0
    outer loop
      vertex 84.6658 -50.4143 18.245
      vertex 84.8701 -50.3334 18.25
      vertex 84.6658 -50.4143 18.25
    endloop
  endfacet
  facet normal 0.368171 -0.929758 0
    outer loop
      vertex 84.8701 -50.3334 18.25
      vertex 84.6658 -50.4143 18.245
      vertex 84.8701 -50.3334 18.245
    endloop
  endfacet
  facet normal 0.904819 0.425797 0
    outer loop
      vertex 85.7521 49.3942 18.25
      vertex 85.6585 49.5931 18.245
      vertex 85.6585 49.5931 18.25
    endloop
  endfacet
  facet normal 0.904819 0.425797 0
    outer loop
      vertex 85.6585 49.5931 18.245
      vertex 85.7521 49.3942 18.25
      vertex 85.7521 49.3942 18.245
    endloop
  endfacet
  facet normal 0.684456 -0.729054 0
    outer loop
      vertex 85.2405 -50.0984 18.245
      vertex 85.4007 -49.948 18.25
      vertex 85.2405 -50.0984 18.25
    endloop
  endfacet
  facet normal 0.684456 -0.729054 0
    outer loop
      vertex 85.4007 -49.948 18.25
      vertex 85.2405 -50.0984 18.245
      vertex 85.4007 -49.948 18.245
    endloop
  endfacet
  facet normal 0.951068 -0.308983 0
    outer loop
      vertex 85.7521 -49.3942 18.25
      vertex 85.82 -49.1852 18.245
      vertex 85.82 -49.1852 18.25
    endloop
  endfacet
  facet normal 0.951068 -0.308983 0
    outer loop
      vertex 85.82 -49.1852 18.245
      vertex 85.7521 -49.3942 18.25
      vertex 85.7521 -49.3942 18.245
    endloop
  endfacet
  facet normal -0.481464 0.876466 0
    outer loop
      vertex -80.8701 50.3334 16.9
      vertex -81.0627 50.2276 18.25
      vertex -80.8701 50.3334 18.25
    endloop
  endfacet
  facet normal -0.481464 0.876466 0
    outer loop
      vertex -81.0627 50.2276 18.25
      vertex -80.8701 50.3334 16.9
      vertex -81.0627 50.2276 16.9
    endloop
  endfacet
  facet normal 0.998026 -0.0628033 0
    outer loop
      vertex 85.8612 -48.9693 18.25
      vertex 85.875 -48.75 18.245
      vertex 85.875 -48.75 18.25
    endloop
  endfacet
  facet normal 0.998026 -0.0628033 0
    outer loop
      vertex 85.875 -48.75 18.245
      vertex 85.8612 -48.9693 18.25
      vertex 85.8612 -48.9693 18.245
    endloop
  endfacet
  facet normal -0.770602 0.637316 0
    outer loop
      vertex -81.5408 49.7786 16.9
      vertex -81.4007 49.948 18.25
      vertex -81.4007 49.948 16.9
    endloop
  endfacet
  facet normal -0.770602 0.637316 0
    outer loop
      vertex -81.4007 49.948 18.25
      vertex -81.5408 49.7786 16.9
      vertex -81.5408 49.7786 18.25
    endloop
  endfacet
  facet normal 0.982275 -0.187447 0
    outer loop
      vertex 85.82 -49.1852 18.25
      vertex 85.8612 -48.9693 18.245
      vertex 85.8612 -48.9693 18.25
    endloop
  endfacet
  facet normal 0.982275 -0.187447 0
    outer loop
      vertex 85.8612 -48.9693 18.245
      vertex 85.82 -49.1852 18.25
      vertex 85.82 -49.1852 18.245
    endloop
  endfacet
  facet normal 0.844373 0.535756 0
    outer loop
      vertex 85.6585 49.5931 18.25
      vertex 85.5408 49.7786 18.245
      vertex 85.5408 49.7786 18.25
    endloop
  endfacet
  facet normal 0.844373 0.535756 0
    outer loop
      vertex 85.5408 49.7786 18.245
      vertex 85.6585 49.5931 18.25
      vertex 85.6585 49.5931 18.245
    endloop
  endfacet
  facet normal -0.368171 0.929758 0
    outer loop
      vertex -80.6658 50.4143 16.9
      vertex -80.8701 50.3334 18.25
      vertex -80.6658 50.4143 18.25
    endloop
  endfacet
  facet normal -0.368171 0.929758 0
    outer loop
      vertex -80.8701 50.3334 18.25
      vertex -80.6658 50.4143 16.9
      vertex -80.8701 50.3334 16.9
    endloop
  endfacet
  facet normal 0.904819 -0.425797 0
    outer loop
      vertex 85.6585 -49.5931 18.25
      vertex 85.7521 -49.3942 18.245
      vertex 85.7521 -49.3942 18.25
    endloop
  endfacet
  facet normal 0.904819 -0.425797 0
    outer loop
      vertex 85.7521 -49.3942 18.245
      vertex 85.6585 -49.5931 18.25
      vertex 85.6585 -49.5931 18.245
    endloop
  endfacet
  facet normal 0 0 1
    outer loop
      vertex 84.2349 50.4965 18.25
      vertex 85.875 48.75 18.25
      vertex 85.8612 48.9693 18.25
    endloop
  endfacet
  facet normal 0 0 1
    outer loop
      vertex 85.875 48.75 18.25
      vertex 84.2349 50.4965 18.25
      vertex 85.875 -48.75 18.25
    endloop
  endfacet
  facet normal 0 0 1
    outer loop
      vertex 84.2349 50.4965 18.25
      vertex 85.8612 48.9693 18.25
      vertex 85.82 49.1852 18.25
    endloop
  endfacet
  facet normal 0 0 1
    outer loop
      vertex 84.2349 -50.4965 18.25
      vertex 85.875 -48.75 18.25
      vertex 84.2349 50.4965 18.25
    endloop
  endfacet
  facet normal 0 0 1
    outer loop
      vertex 84.2349 50.4965 18.25
      vertex 85.82 49.1852 18.25
      vertex 85.7521 49.3942 18.25
    endloop
  endfacet
  facet normal 0 0 1
    outer loop
      vertex 85.875 -48.75 18.25
      vertex 84.2349 -50.4965 18.25
      vertex 85.8612 -48.9693 18.25
    endloop
  endfacet
  facet normal 0 0 1
    outer loop
      vertex 84.2349 50.4965 18.25
      vertex 85.7521 49.3942 18.25
      vertex 85.6585 49.5931 18.25
    endloop
  endfacet
  facet normal 0 0 1
    outer loop
      vertex 85.8612 -48.9693 18.25
      vertex 84.2349 -50.4965 18.25
      vertex 85.82 -49.1852 18.25
    endloop
  endfacet
  facet normal 0 0 1
    outer loop
      vertex 84.2349 50.4965 18.25
      vertex 85.6585 49.5931 18.25
      vertex 85.5408 49.7786 18.25
    endloop
  endfacet
  facet normal 0 0 1
    outer loop
      vertex 85.82 -49.1852 18.25
      vertex 84.2349 -50.4965 18.25
      vertex 85.7521 -49.3942 18.25
    endloop
  endfacet
  facet normal 0 0 1
    outer loop
      vertex 84.2349 50.4965 18.25
      vertex 85.5408 49.7786 18.25
      vertex 85.4007 49.948 18.25
    endloop
  endfacet
  facet normal 0 0 1
    outer loop
      vertex 85.7521 -49.3942 18.25
      vertex 84.2349 -50.4965 18.25
      vertex 85.6585 -49.5931 18.25
    endloop
  endfacet
  facet normal 0 0 1
    outer loop
      vertex 84.2349 50.4965 18.25
      vertex 85.4007 49.948 18.25
      vertex 85.2405 50.0984 18.25
    endloop
  endfacet
  facet normal 0 0 1
    outer loop
      vertex 85.6585 -49.5931 18.25
      vertex 84.2349 -50.4965 18.25
      vertex 85.5408 -49.7786 18.25
    endloop
  endfacet
  facet normal 0 0 1
    outer loop
      vertex 84.2349 50.4965 18.25
      vertex 85.2405 50.0984 18.25
      vertex 85.0627 50.2276 18.25
    endloop
  endfacet
  facet normal 0 0 1
    outer loop
      vertex 85.5408 -49.7786 18.25
      vertex 84.2349 -50.4965 18.25
      vertex 85.4007 -49.948 18.25
    endloop
  endfacet
  facet normal 0 0 1
    outer loop
      vertex 84.2349 50.4965 18.25
      vertex 85.0627 50.2276 18.25
      vertex 84.8701 50.3334 18.25
    endloop
  endfacet
  facet normal 0 0 1
    outer loop
      vertex 85.4007 -49.948 18.25
      vertex 84.2349 -50.4965 18.25
      vertex 85.2405 -50.0984 18.25
    endloop
  endfacet
  facet normal 0 0 1
    outer loop
      vertex 84.2349 50.4965 18.25
      vertex 84.8701 50.3334 18.25
      vertex 84.6658 50.4143 18.25
    endloop
  endfacet
  facet normal 0 0 1
    outer loop
      vertex 85.2405 -50.0984 18.25
      vertex 84.2349 -50.4965 18.25
      vertex 85.0627 -50.2276 18.25
    endloop
  endfacet
  facet normal 0 0 1
    outer loop
      vertex 84.2349 50.4965 18.25
      vertex 84.6658 50.4143 18.25
      vertex 84.4529 50.469 18.25
    endloop
  endfacet
  facet normal 0 0 1
    outer loop
      vertex 85.0627 -50.2276 18.25
      vertex 84.2349 -50.4965 18.25
      vertex 84.8701 -50.3334 18.25
    endloop
  endfacet
  facet normal 0 0 1
    outer loop
      vertex 84.8701 -50.3334 18.25
      vertex 84.2349 -50.4965 18.25
      vertex 84.6658 -50.4143 18.25
    endloop
  endfacet
  facet normal 0 0 1
    outer loop
      vertex 84.6658 -50.4143 18.25
      vertex 84.2349 -50.4965 18.25
      vertex 84.4529 -50.469 18.25
    endloop
  endfacet
  facet normal -0 0 1
    outer loop
      vertex -80.2349 50.4965 18.25
      vertex 84.2349 -50.4965 18.25
      vertex 84.2349 50.4965 18.25
    endloop
  endfacet
  facet normal 0 0 1
    outer loop
      vertex -80.2349 50.4965 18.25
      vertex -80.2349 -50.4965 18.25
      vertex 84.2349 -50.4965 18.25
    endloop
  endfacet
  facet normal 0 0 1
    outer loop
      vertex -81.875 48.75 18.25
      vertex -80.2349 50.4965 18.25
      vertex -80.4529 50.469 18.25
    endloop
  endfacet
  facet normal 0 0 1
    outer loop
      vertex -80.2349 50.4965 18.25
      vertex -81.875 48.75 18.25
      vertex -80.2349 -50.4965 18.25
    endloop
  endfacet
  facet normal 0 0 1
    outer loop
      vertex -81.875 48.75 18.25
      vertex -80.4529 50.469 18.25
      vertex -80.6658 50.4143 18.25
    endloop
  endfacet
  facet normal -0 0 1
    outer loop
      vertex -81.875 -48.75 18.25
      vertex -80.2349 -50.4965 18.25
      vertex -81.875 48.75 18.25
    endloop
  endfacet
  facet normal 0 0 1
    outer loop
      vertex -81.875 48.75 18.25
      vertex -80.6658 50.4143 18.25
      vertex -80.8701 50.3334 18.25
    endloop
  endfacet
  facet normal 0 0 1
    outer loop
      vertex -80.2349 -50.4965 18.25
      vertex -81.875 -48.75 18.25
      vertex -80.4529 -50.469 18.25
    endloop
  endfacet
  facet normal 0 0 1
    outer loop
      vertex -81.875 48.75 18.25
      vertex -80.8701 50.3334 18.25
      vertex -81.0627 50.2276 18.25
    endloop
  endfacet
  facet normal 0 0 1
    outer loop
      vertex -80.4529 -50.469 18.25
      vertex -81.875 -48.75 18.25
      vertex -80.6658 -50.4143 18.25
    endloop
  endfacet
  facet normal 0 0 1
    outer loop
      vertex -81.875 48.75 18.25
      vertex -81.0627 50.2276 18.25
      vertex -81.2405 50.0984 18.25
    endloop
  endfacet
  facet normal 0 0 1
    outer loop
      vertex -80.6658 -50.4143 18.25
      vertex -81.875 -48.75 18.25
      vertex -80.8701 -50.3334 18.25
    endloop
  endfacet
  facet normal 0 0 1
    outer loop
      vertex -81.875 48.75 18.25
      vertex -81.2405 50.0984 18.25
      vertex -81.4007 49.948 18.25
    endloop
  endfacet
  facet normal 0 0 1
    outer loop
      vertex -80.8701 -50.3334 18.25
      vertex -81.875 -48.75 18.25
      vertex -81.0627 -50.2276 18.25
    endloop
  endfacet
  facet normal 0 0 1
    outer loop
      vertex -81.875 48.75 18.25
      vertex -81.4007 49.948 18.25
      vertex -81.5408 49.7786 18.25
    endloop
  endfacet
  facet normal 0 0 1
    outer loop
      vertex -81.0627 -50.2276 18.25
      vertex -81.875 -48.75 18.25
      vertex -81.2405 -50.0984 18.25
    endloop
  endfacet
  facet normal 0 0 1
    outer loop
      vertex -81.875 48.75 18.25
      vertex -81.5408 49.7786 18.25
      vertex -81.6585 49.5931 18.25
    endloop
  endfacet
  facet normal 0 0 1
    outer loop
      vertex -81.2405 -50.0984 18.25
      vertex -81.875 -48.75 18.25
      vertex -81.4007 -49.948 18.25
    endloop
  endfacet
  facet normal 0 0 1
    outer loop
      vertex -81.875 48.75 18.25
      vertex -81.6585 49.5931 18.25
      vertex -81.7521 49.3942 18.25
    endloop
  endfacet
  facet normal 0 0 1
    outer loop
      vertex -81.4007 -49.948 18.25
      vertex -81.875 -48.75 18.25
      vertex -81.5408 -49.7786 18.25
    endloop
  endfacet
  facet normal 0 0 1
    outer loop
      vertex -81.875 48.75 18.25
      vertex -81.7521 49.3942 18.25
      vertex -81.82 49.1852 18.25
    endloop
  endfacet
  facet normal 0 0 1
    outer loop
      vertex -81.5408 -49.7786 18.25
      vertex -81.875 -48.75 18.25
      vertex -81.6585 -49.5931 18.25
    endloop
  endfacet
  facet normal 0 0 1
    outer loop
      vertex -81.875 48.75 18.25
      vertex -81.82 49.1852 18.25
      vertex -81.8612 48.9693 18.25
    endloop
  endfacet
  facet normal 0 0 1
    outer loop
      vertex -81.6585 -49.5931 18.25
      vertex -81.875 -48.75 18.25
      vertex -81.7521 -49.3942 18.25
    endloop
  endfacet
  facet normal 0 0 1
    outer loop
      vertex -81.7521 -49.3942 18.25
      vertex -81.875 -48.75 18.25
      vertex -81.82 -49.1852 18.25
    endloop
  endfacet
  facet normal 0 0 1
    outer loop
      vertex -81.82 -49.1852 18.25
      vertex -81.875 -48.75 18.25
      vertex -81.8612 -48.9693 18.25
    endloop
  endfacet
  facet normal 0.588431 0 0.808548
    outer loop
      vertex 86.2006 50.5 18.245
      vertex 86.2748 -50.5 18.191
      vertex 86.2748 50.5 18.191
    endloop
  endfacet
  facet normal 0.588431 0 0.808548
    outer loop
      vertex 86.2748 -50.5 18.191
      vertex 86.2006 50.5 18.245
      vertex 86.2006 -50.5 18.245
    endloop
  endfacet
  facet normal 0.951046 -0 0.30905
    outer loop
      vertex 86.8596 -50.5 17.3862
      vertex 86.9372 50.5 17.1474
      vertex 86.8596 50.5 17.3862
    endloop
  endfacet
  facet normal 0.951046 0 0.30905
    outer loop
      vertex 86.9372 50.5 17.1474
      vertex 86.8596 -50.5 17.3862
      vertex 86.9372 -50.5 17.1474
    endloop
  endfacet
  facet normal 0.844333 -0 0.535819
    outer loop
      vertex 86.618 -50.5 17.8256
      vertex 86.7526 50.5 17.6135
      vertex 86.618 50.5 17.8256
    endloop
  endfacet
  facet normal 0.844333 0 0.535819
    outer loop
      vertex 86.7526 50.5 17.6135
      vertex 86.618 -50.5 17.8256
      vertex 86.7526 -50.5 17.6135
    endloop
  endfacet
  facet normal 0.989949 -0 0.141421
    outer loop
      vertex 86.9842 -50.5 16.9007
      vertex 86.9843 50.5 16.9
      vertex 86.9842 50.5 16.9007
    endloop
  endfacet
  facet normal 0.989949 0 0.141421
    outer loop
      vertex 86.9843 50.5 16.9
      vertex 86.9842 -50.5 16.9007
      vertex 86.9843 -50.5 16.9
    endloop
  endfacet
  facet normal 0.684458 0 0.729053
    outer loop
      vertex 86.2748 50.5 18.191
      vertex 86.4579 -50.5 18.0191
      vertex 86.4579 50.5 18.0191
    endloop
  endfacet
  facet normal 0.684458 0 0.729053
    outer loop
      vertex 86.4579 -50.5 18.0191
      vertex 86.2748 50.5 18.191
      vertex 86.2748 -50.5 18.191
    endloop
  endfacet
  facet normal 0.904765 -0 0.425912
    outer loop
      vertex 86.7526 -50.5 17.6135
      vertex 86.8596 50.5 17.3862
      vertex 86.7526 50.5 17.6135
    endloop
  endfacet
  facet normal 0.904765 0 0.425912
    outer loop
      vertex 86.8596 50.5 17.3862
      vertex 86.7526 -50.5 17.6135
      vertex 86.8596 -50.5 17.3862
    endloop
  endfacet
  facet normal 0.770468 -0 0.637478
    outer loop
      vertex 86.4579 -50.5 18.0191
      vertex 86.618 50.5 17.8256
      vertex 86.4579 50.5 18.0191
    endloop
  endfacet
  facet normal 0.770468 0 0.637478
    outer loop
      vertex 86.618 50.5 17.8256
      vertex 86.4579 -50.5 18.0191
      vertex 86.618 -50.5 17.8256
    endloop
  endfacet
  facet normal 0.982332 -0 0.187149
    outer loop
      vertex 86.9372 -50.5 17.1474
      vertex 86.9842 50.5 16.9007
      vertex 86.9372 50.5 17.1474
    endloop
  endfacet
  facet normal 0.982332 0 0.187149
    outer loop
      vertex 86.9842 50.5 16.9007
      vertex 86.9372 -50.5 17.1474
      vertex 86.9842 -50.5 16.9007
    endloop
  endfacet
  facet normal 0 0 1
    outer loop
      vertex 86.2006 50.5 18.245
      vertex 85.875 48.75 18.245
      vertex 86.2006 -50.5 18.245
    endloop
  endfacet
  facet normal 0 0 1
    outer loop
      vertex 86.2006 50.5 18.245
      vertex 85.8612 48.9693 18.245
      vertex 85.875 48.75 18.245
    endloop
  endfacet
  facet normal 0 0 1
    outer loop
      vertex 86.2006 50.5 18.245
      vertex 85.82 49.1852 18.245
      vertex 85.8612 48.9693 18.245
    endloop
  endfacet
  facet normal 0 0 1
    outer loop
      vertex 86.2006 50.5 18.245
      vertex 85.7521 49.3942 18.245
      vertex 85.82 49.1852 18.245
    endloop
  endfacet
  facet normal 0 0 1
    outer loop
      vertex 86.2006 50.5 18.245
      vertex 85.6585 49.5931 18.245
      vertex 85.7521 49.3942 18.245
    endloop
  endfacet
  facet normal 0 0 1
    outer loop
      vertex 86.2006 50.5 18.245
      vertex 85.5408 49.7786 18.245
      vertex 85.6585 49.5931 18.245
    endloop
  endfacet
  facet normal 0 0 1
    outer loop
      vertex 86.2006 50.5 18.245
      vertex 85.4007 49.948 18.245
      vertex 85.5408 49.7786 18.245
    endloop
  endfacet
  facet normal 0 0 1
    outer loop
      vertex 86.2006 50.5 18.245
      vertex 85.2405 50.0984 18.245
      vertex 85.4007 49.948 18.245
    endloop
  endfacet
  facet normal 0 0 1
    outer loop
      vertex 86.2006 50.5 18.245
      vertex 85.0627 50.2276 18.245
      vertex 85.2405 50.0984 18.245
    endloop
  endfacet
  facet normal 0 0 1
    outer loop
      vertex 86.2006 50.5 18.245
      vertex 84.8701 50.3334 18.245
      vertex 85.0627 50.2276 18.245
    endloop
  endfacet
  facet normal 0 0 1
    outer loop
      vertex 86.2006 50.5 18.245
      vertex 84.6658 50.4143 18.245
      vertex 84.8701 50.3334 18.245
    endloop
  endfacet
  facet normal 0 0 1
    outer loop
      vertex 86.2006 50.5 18.245
      vertex 84.4529 50.469 18.245
      vertex 84.6658 50.4143 18.245
    endloop
  endfacet
  facet normal 0 0 1
    outer loop
      vertex 86.2006 50.5 18.245
      vertex 84.2349 50.4965 18.245
      vertex 84.4529 50.469 18.245
    endloop
  endfacet
  facet normal -0 0 1
    outer loop
      vertex 82.1 50.5 18.245
      vertex 84.2349 50.4965 18.245
      vertex 86.2006 50.5 18.245
    endloop
  endfacet
  facet normal 0 0 1
    outer loop
      vertex 84.2349 50.4965 18.245
      vertex 82.1 50.5 18.245
      vertex 82.1 50.4965 18.245
    endloop
  endfacet
  facet normal -0 0 1
    outer loop
      vertex 85.875 -48.75 18.245
      vertex 86.2006 -50.5 18.245
      vertex 85.875 48.75 18.245
    endloop
  endfacet
  facet normal -0 0 1
    outer loop
      vertex 85.8612 -48.9693 18.245
      vertex 86.2006 -50.5 18.245
      vertex 85.875 -48.75 18.245
    endloop
  endfacet
  facet normal -0 0 1
    outer loop
      vertex 85.82 -49.1852 18.245
      vertex 86.2006 -50.5 18.245
      vertex 85.8612 -48.9693 18.245
    endloop
  endfacet
  facet normal -0 0 1
    outer loop
      vertex 85.7521 -49.3942 18.245
      vertex 86.2006 -50.5 18.245
      vertex 85.82 -49.1852 18.245
    endloop
  endfacet
  facet normal -0 0 1
    outer loop
      vertex 85.6585 -49.5931 18.245
      vertex 86.2006 -50.5 18.245
      vertex 85.7521 -49.3942 18.245
    endloop
  endfacet
  facet normal -0 0 1
    outer loop
      vertex 85.5408 -49.7786 18.245
      vertex 86.2006 -50.5 18.245
      vertex 85.6585 -49.5931 18.245
    endloop
  endfacet
  facet normal -0 0 1
    outer loop
      vertex 85.4007 -49.948 18.245
      vertex 86.2006 -50.5 18.245
      vertex 85.5408 -49.7786 18.245
    endloop
  endfacet
  facet normal -0 0 1
    outer loop
      vertex 85.2405 -50.0984 18.245
      vertex 86.2006 -50.5 18.245
      vertex 85.4007 -49.948 18.245
    endloop
  endfacet
  facet normal -0 0 1
    outer loop
      vertex 85.0627 -50.2276 18.245
      vertex 86.2006 -50.5 18.245
      vertex 85.2405 -50.0984 18.245
    endloop
  endfacet
  facet normal -0 0 1
    outer loop
      vertex 84.8701 -50.3334 18.245
      vertex 86.2006 -50.5 18.245
      vertex 85.0627 -50.2276 18.245
    endloop
  endfacet
  facet normal -0 0 1
    outer loop
      vertex 84.6658 -50.4143 18.245
      vertex 86.2006 -50.5 18.245
      vertex 84.8701 -50.3334 18.245
    endloop
  endfacet
  facet normal -0 0 1
    outer loop
      vertex 84.4529 -50.469 18.245
      vertex 86.2006 -50.5 18.245
      vertex 84.6658 -50.4143 18.245
    endloop
  endfacet
  facet normal -0 0 1
    outer loop
      vertex 84.2349 -50.4965 18.245
      vertex 86.2006 -50.5 18.245
      vertex 84.4529 -50.469 18.245
    endloop
  endfacet
  facet normal 0 0 1
    outer loop
      vertex 82.1 -50.5 18.245
      vertex 84.2349 -50.4965 18.245
      vertex 82.1 -50.4965 18.245
    endloop
  endfacet
  facet normal 0 0 1
    outer loop
      vertex 84.2349 -50.4965 18.245
      vertex 82.1 -50.5 18.245
      vertex 86.2006 -50.5 18.245
    endloop
  endfacet
  facet normal 0 1 0
    outer loop
      vertex 86.4579 50.5 18.0191
      vertex 86.2006 50.5 18.245
      vertex 86.2748 50.5 18.191
    endloop
  endfacet
  facet normal 0 1 0
    outer loop
      vertex 86.2006 50.5 18.245
      vertex 86.4579 50.5 18.0191
      vertex 86.9843 50.5 16.9
    endloop
  endfacet
  facet normal 0 1 0
    outer loop
      vertex 86.9843 50.5 16.9
      vertex 86.4579 50.5 18.0191
      vertex 86.618 50.5 17.8256
    endloop
  endfacet
  facet normal 0 1 0
    outer loop
      vertex 86.9843 50.5 16.9
      vertex 86.618 50.5 17.8256
      vertex 86.7526 50.5 17.6135
    endloop
  endfacet
  facet normal 0 1 0
    outer loop
      vertex 86.9843 50.5 16.9
      vertex 86.7526 50.5 17.6135
      vertex 86.8596 50.5 17.3862
    endloop
  endfacet
  facet normal 0 1 0
    outer loop
      vertex 86.9843 50.5 16.9
      vertex 86.8596 50.5 17.3862
      vertex 86.9372 50.5 17.1474
    endloop
  endfacet
  facet normal 0 1 0
    outer loop
      vertex 86.9843 50.5 16.9
      vertex 86.9372 50.5 17.1474
      vertex 86.9842 50.5 16.9007
    endloop
  endfacet
  facet normal 0 1 0
    outer loop
      vertex 86.2006 50.5 18.245
      vertex 86.9843 50.5 16.9
      vertex 82.1 50.5 16.9
    endloop
  endfacet
  facet normal 0 1 0
    outer loop
      vertex 86.2006 50.5 18.245
      vertex 82.1 50.5 16.9
      vertex 82.1 50.5 18.245
    endloop
  endfacet
  facet normal 0 -1 0
    outer loop
      vertex 82.1 -50.5 16.9
      vertex 86.2006 -50.5 18.245
      vertex 82.1 -50.5 18.245
    endloop
  endfacet
  facet normal 0 -1 0
    outer loop
      vertex 86.9843 -50.5 16.9
      vertex 86.2006 -50.5 18.245
      vertex 82.1 -50.5 16.9
    endloop
  endfacet
  facet normal -0 -1 -0
    outer loop
      vertex 86.4579 -50.5 18.0191
      vertex 86.2006 -50.5 18.245
      vertex 86.9843 -50.5 16.9
    endloop
  endfacet
  facet normal 0 -1 0
    outer loop
      vertex 86.2006 -50.5 18.245
      vertex 86.4579 -50.5 18.0191
      vertex 86.2748 -50.5 18.191
    endloop
  endfacet
  facet normal 0 -1 0
    outer loop
      vertex 86.4579 -50.5 18.0191
      vertex 86.9843 -50.5 16.9
      vertex 86.618 -50.5 17.8256
    endloop
  endfacet
  facet normal 0 -1 0
    outer loop
      vertex 86.618 -50.5 17.8256
      vertex 86.9843 -50.5 16.9
      vertex 86.7526 -50.5 17.6135
    endloop
  endfacet
  facet normal 0 -1 0
    outer loop
      vertex 86.7526 -50.5 17.6135
      vertex 86.9843 -50.5 16.9
      vertex 86.8596 -50.5 17.3862
    endloop
  endfacet
  facet normal 0 -1 0
    outer loop
      vertex 86.8596 -50.5 17.3862
      vertex 86.9843 -50.5 16.9
      vertex 86.9372 -50.5 17.1474
    endloop
  endfacet
  facet normal 0 -1 0
    outer loop
      vertex 86.9372 -50.5 17.1474
      vertex 86.9843 -50.5 16.9
      vertex 86.9842 -50.5 16.9007
    endloop
  endfacet
  facet normal -0.90522 0 0.424944
    outer loop
      vertex -70.4574 50.4965 16.9
      vertex -70.4382 52.47 16.9409
      vertex -70.4574 52.47 16.9
    endloop
  endfacet
  facet normal -0.90522 0 0.424944
    outer loop
      vertex -70.4382 52.47 16.9409
      vertex -70.4574 50.4965 16.9
      vertex -70.4382 50.4965 16.9409
    endloop
  endfacet
  facet normal -0.90522 0 0.424944
    outer loop
      vertex -70.4574 -52.47 16.9
      vertex -70.4382 -50.4965 16.9409
      vertex -70.4574 -50.4965 16.9
    endloop
  endfacet
  facet normal -0.90522 0 0.424944
    outer loop
      vertex -70.4382 -50.4965 16.9409
      vertex -70.4574 -52.47 16.9
      vertex -70.4382 -52.47 16.9409
    endloop
  endfacet
  facet normal 0.587698 0 0.80908
    outer loop
      vertex -69.7321 -50.4965 17.1222
      vertex -69.6813 -52.47 17.0853
      vertex -69.6813 -50.4965 17.0853
    endloop
  endfacet
  facet normal 0.587698 0 0.80908
    outer loop
      vertex -69.6813 -52.47 17.0853
      vertex -69.7321 -50.4965 17.1222
      vertex -69.7321 -52.47 17.1222
    endloop
  endfacet
  facet normal 0.587698 0 0.80908
    outer loop
      vertex -69.7321 52.47 17.1222
      vertex -69.6813 50.4965 17.0853
      vertex -69.6813 52.47 17.0853
    endloop
  endfacet
  facet normal 0.587698 0 0.80908
    outer loop
      vertex -69.6813 50.4965 17.0853
      vertex -69.7321 52.47 17.1222
      vertex -69.7321 50.4965 17.1222
    endloop
  endfacet
  facet normal -0.770826 0 0.637046
    outer loop
      vertex -70.4045 -52.47 16.9939
      vertex -70.3645 -50.4965 17.0423
      vertex -70.4045 -50.4965 16.9939
    endloop
  endfacet
  facet normal -0.770826 0 0.637046
    outer loop
      vertex -70.3645 -50.4965 17.0423
      vertex -70.4045 -52.47 16.9939
      vertex -70.3645 -52.47 17.0423
    endloop
  endfacet
  facet normal -0.770826 0 0.637046
    outer loop
      vertex -70.4045 50.4965 16.9939
      vertex -70.3645 52.47 17.0423
      vertex -70.4045 52.47 16.9939
    endloop
  endfacet
  facet normal -0.770826 0 0.637046
    outer loop
      vertex -70.3645 52.47 17.0423
      vertex -70.4045 50.4965 16.9939
      vertex -70.3645 50.4965 17.0423
    endloop
  endfacet
  facet normal -0 0 1
    outer loop
      vertex -70.0314 52.47 17.199
      vertex -69.9686 50.4965 17.199
      vertex -69.9686 52.47 17.199
    endloop
  endfacet
  facet normal 0 0 1
    outer loop
      vertex -69.9686 50.4965 17.199
      vertex -70.0314 52.47 17.199
      vertex -70.0314 50.4965 17.199
    endloop
  endfacet
  facet normal -0 0 1
    outer loop
      vertex -70.0314 -50.4965 17.199
      vertex -69.9686 -52.47 17.199
      vertex -69.9686 -50.4965 17.199
    endloop
  endfacet
  facet normal 0 0 1
    outer loop
      vertex -69.9686 -52.47 17.199
      vertex -70.0314 -50.4965 17.199
      vertex -70.0314 -52.47 17.199
    endloop
  endfacet
  facet normal 0.367819 0 0.929897
    outer loop
      vertex -69.8455 -50.4965 17.1755
      vertex -69.7871 -52.47 17.1524
      vertex -69.7871 -50.4965 17.1524
    endloop
  endfacet
  facet normal 0.367819 0 0.929897
    outer loop
      vertex -69.7871 -52.47 17.1524
      vertex -69.8455 -50.4965 17.1755
      vertex -69.8455 -52.47 17.1755
    endloop
  endfacet
  facet normal 0.367819 0 0.929897
    outer loop
      vertex -69.8455 52.47 17.1755
      vertex -69.7871 50.4965 17.1524
      vertex -69.7871 52.47 17.1524
    endloop
  endfacet
  facet normal 0.367819 0 0.929897
    outer loop
      vertex -69.7871 50.4965 17.1524
      vertex -69.8455 52.47 17.1755
      vertex -69.8455 50.4965 17.1755
    endloop
  endfacet
  facet normal -0.367819 0 0.929897
    outer loop
      vertex -70.2129 -50.4965 17.1524
      vertex -70.1545 -52.47 17.1755
      vertex -70.1545 -50.4965 17.1755
    endloop
  endfacet
  facet normal -0.367819 0 0.929897
    outer loop
      vertex -70.1545 -52.47 17.1755
      vertex -70.2129 -50.4965 17.1524
      vertex -70.2129 -52.47 17.1524
    endloop
  endfacet
  facet normal -0.367819 0 0.929897
    outer loop
      vertex -70.2129 52.47 17.1524
      vertex -70.1545 50.4965 17.1755
      vertex -70.1545 52.47 17.1755
    endloop
  endfacet
  facet normal -0.367819 0 0.929897
    outer loop
      vertex -70.1545 50.4965 17.1755
      vertex -70.2129 52.47 17.1524
      vertex -70.2129 50.4965 17.1524
    endloop
  endfacet
  facet normal -0.68447 0 0.729041
    outer loop
      vertex -70.3645 -50.4965 17.0423
      vertex -70.3187 -52.47 17.0853
      vertex -70.3187 -50.4965 17.0853
    endloop
  endfacet
  facet normal -0.68447 0 0.729041
    outer loop
      vertex -70.3187 -52.47 17.0853
      vertex -70.3645 -50.4965 17.0423
      vertex -70.3645 -52.47 17.0423
    endloop
  endfacet
  facet normal -0.68447 0 0.729041
    outer loop
      vertex -70.3645 52.47 17.0423
      vertex -70.3187 50.4965 17.0853
      vertex -70.3187 52.47 17.0853
    endloop
  endfacet
  facet normal -0.68447 0 0.729041
    outer loop
      vertex -70.3187 50.4965 17.0853
      vertex -70.3645 52.47 17.0423
      vertex -70.3645 50.4965 17.0423
    endloop
  endfacet
  facet normal -0.587698 0 0.80908
    outer loop
      vertex -70.3187 -50.4965 17.0853
      vertex -70.2679 -52.47 17.1222
      vertex -70.2679 -50.4965 17.1222
    endloop
  endfacet
  facet normal -0.587698 0 0.80908
    outer loop
      vertex -70.2679 -52.47 17.1222
      vertex -70.3187 -50.4965 17.0853
      vertex -70.3187 -52.47 17.0853
    endloop
  endfacet
  facet normal -0.587698 0 0.80908
    outer loop
      vertex -70.3187 52.47 17.0853
      vertex -70.2679 50.4965 17.1222
      vertex -70.2679 52.47 17.1222
    endloop
  endfacet
  facet normal -0.587698 0 0.80908
    outer loop
      vertex -70.2679 50.4965 17.1222
      vertex -70.3187 52.47 17.0853
      vertex -70.3187 50.4965 17.0853
    endloop
  endfacet
  facet normal -0.481307 0 0.876552
    outer loop
      vertex -70.2679 -50.4965 17.1222
      vertex -70.2129 -52.47 17.1524
      vertex -70.2129 -50.4965 17.1524
    endloop
  endfacet
  facet normal -0.481307 0 0.876552
    outer loop
      vertex -70.2129 -52.47 17.1524
      vertex -70.2679 -50.4965 17.1222
      vertex -70.2679 -52.47 17.1222
    endloop
  endfacet
  facet normal -0.481307 0 0.876552
    outer loop
      vertex -70.2679 52.47 17.1222
      vertex -70.2129 50.4965 17.1524
      vertex -70.2129 52.47 17.1524
    endloop
  endfacet
  facet normal -0.481307 0 0.876552
    outer loop
      vertex -70.2129 50.4965 17.1524
      vertex -70.2679 52.47 17.1222
      vertex -70.2679 50.4965 17.1222
    endloop
  endfacet
  facet normal 0.68447 0 0.729041
    outer loop
      vertex -69.6813 -50.4965 17.0853
      vertex -69.6355 -52.47 17.0423
      vertex -69.6355 -50.4965 17.0423
    endloop
  endfacet
  facet normal 0.68447 0 0.729041
    outer loop
      vertex -69.6355 -52.47 17.0423
      vertex -69.6813 -50.4965 17.0853
      vertex -69.6813 -52.47 17.0853
    endloop
  endfacet
  facet normal 0.68447 0 0.729041
    outer loop
      vertex -69.6813 52.47 17.0853
      vertex -69.6355 50.4965 17.0423
      vertex -69.6355 52.47 17.0423
    endloop
  endfacet
  facet normal 0.68447 0 0.729041
    outer loop
      vertex -69.6355 50.4965 17.0423
      vertex -69.6813 52.47 17.0853
      vertex -69.6813 50.4965 17.0853
    endloop
  endfacet
  facet normal 0.843858 -0 0.536566
    outer loop
      vertex -69.5955 50.4965 16.9939
      vertex -69.5618 52.47 16.9409
      vertex -69.5955 52.47 16.9939
    endloop
  endfacet
  facet normal 0.843858 0 0.536566
    outer loop
      vertex -69.5618 52.47 16.9409
      vertex -69.5955 50.4965 16.9939
      vertex -69.5618 50.4965 16.9409
    endloop
  endfacet
  facet normal 0.843858 -0 0.536566
    outer loop
      vertex -69.5955 -52.47 16.9939
      vertex -69.5618 -50.4965 16.9409
      vertex -69.5955 -50.4965 16.9939
    endloop
  endfacet
  facet normal 0.843858 0 0.536566
    outer loop
      vertex -69.5618 -50.4965 16.9409
      vertex -69.5955 -52.47 16.9939
      vertex -69.5618 -52.47 16.9409
    endloop
  endfacet
  facet normal -0.248529 0 0.968625
    outer loop
      vertex -70.1545 52.47 17.1755
      vertex -70.0937 50.4965 17.1911
      vertex -70.0937 52.47 17.1911
    endloop
  endfacet
  facet normal -0.248529 0 0.968625
    outer loop
      vertex -70.0937 50.4965 17.1911
      vertex -70.1545 52.47 17.1755
      vertex -70.1545 50.4965 17.1755
    endloop
  endfacet
  facet normal -0.248529 0 0.968625
    outer loop
      vertex -70.1545 -50.4965 17.1755
      vertex -70.0937 -52.47 17.1911
      vertex -70.0937 -50.4965 17.1911
    endloop
  endfacet
  facet normal -0.248529 0 0.968625
    outer loop
      vertex -70.0937 -52.47 17.1911
      vertex -70.1545 -50.4965 17.1755
      vertex -70.1545 -52.47 17.1755
    endloop
  endfacet
  facet normal 0.481307 0 0.876552
    outer loop
      vertex -69.7871 52.47 17.1524
      vertex -69.7321 50.4965 17.1222
      vertex -69.7321 52.47 17.1222
    endloop
  endfacet
  facet normal 0.481307 0 0.876552
    outer loop
      vertex -69.7321 50.4965 17.1222
      vertex -69.7871 52.47 17.1524
      vertex -69.7871 50.4965 17.1524
    endloop
  endfacet
  facet normal 0.481307 0 0.876552
    outer loop
      vertex -69.7871 -50.4965 17.1524
      vertex -69.7321 -52.47 17.1222
      vertex -69.7321 -50.4965 17.1222
    endloop
  endfacet
  facet normal 0.481307 0 0.876552
    outer loop
      vertex -69.7321 -52.47 17.1222
      vertex -69.7871 -50.4965 17.1524
      vertex -69.7871 -52.47 17.1524
    endloop
  endfacet
  facet normal -0.125798 0 0.992056
    outer loop
      vertex -70.0937 52.47 17.1911
      vertex -70.0314 50.4965 17.199
      vertex -70.0314 52.47 17.199
    endloop
  endfacet
  facet normal -0.125798 0 0.992056
    outer loop
      vertex -70.0314 50.4965 17.199
      vertex -70.0937 52.47 17.1911
      vertex -70.0937 50.4965 17.1911
    endloop
  endfacet
  facet normal -0.125798 0 0.992056
    outer loop
      vertex -70.0937 -50.4965 17.1911
      vertex -70.0314 -52.47 17.199
      vertex -70.0314 -50.4965 17.199
    endloop
  endfacet
  facet normal -0.125798 0 0.992056
    outer loop
      vertex -70.0314 -52.47 17.199
      vertex -70.0937 -50.4965 17.1911
      vertex -70.0937 -52.47 17.1911
    endloop
  endfacet
  facet normal 0.90522 -0 0.424944
    outer loop
      vertex -69.5618 -52.47 16.9409
      vertex -69.5426 -50.4965 16.9
      vertex -69.5618 -50.4965 16.9409
    endloop
  endfacet
  facet normal 0.90522 0 0.424944
    outer loop
      vertex -69.5426 -50.4965 16.9
      vertex -69.5618 -52.47 16.9409
      vertex -69.5426 -52.47 16.9
    endloop
  endfacet
  facet normal 0.90522 -0 0.424944
    outer loop
      vertex -69.5618 50.4965 16.9409
      vertex -69.5426 52.47 16.9
      vertex -69.5618 52.47 16.9409
    endloop
  endfacet
  facet normal 0.90522 0 0.424944
    outer loop
      vertex -69.5426 52.47 16.9
      vertex -69.5618 50.4965 16.9409
      vertex -69.5426 50.4965 16.9
    endloop
  endfacet
  facet normal 0.770826 -0 0.637046
    outer loop
      vertex -69.6355 50.4965 17.0423
      vertex -69.5955 52.47 16.9939
      vertex -69.6355 52.47 17.0423
    endloop
  endfacet
  facet normal 0.770826 0 0.637046
    outer loop
      vertex -69.5955 52.47 16.9939
      vertex -69.6355 50.4965 17.0423
      vertex -69.5955 50.4965 16.9939
    endloop
  endfacet
  facet normal 0.770826 -0 0.637046
    outer loop
      vertex -69.6355 -52.47 17.0423
      vertex -69.5955 -50.4965 16.9939
      vertex -69.6355 -50.4965 17.0423
    endloop
  endfacet
  facet normal 0.770826 0 0.637046
    outer loop
      vertex -69.5955 -50.4965 16.9939
      vertex -69.6355 -52.47 17.0423
      vertex -69.5955 -52.47 16.9939
    endloop
  endfacet
  facet normal 0.125798 0 0.992056
    outer loop
      vertex -69.9686 52.47 17.199
      vertex -69.9063 50.4965 17.1911
      vertex -69.9063 52.47 17.1911
    endloop
  endfacet
  facet normal 0.125798 0 0.992056
    outer loop
      vertex -69.9063 50.4965 17.1911
      vertex -69.9686 52.47 17.199
      vertex -69.9686 50.4965 17.199
    endloop
  endfacet
  facet normal 0.125798 0 0.992056
    outer loop
      vertex -69.9686 -50.4965 17.199
      vertex -69.9063 -52.47 17.1911
      vertex -69.9063 -50.4965 17.1911
    endloop
  endfacet
  facet normal 0.125798 0 0.992056
    outer loop
      vertex -69.9063 -52.47 17.1911
      vertex -69.9686 -50.4965 17.199
      vertex -69.9686 -52.47 17.199
    endloop
  endfacet
  facet normal -0.843858 0 0.536566
    outer loop
      vertex -70.4382 -52.47 16.9409
      vertex -70.4045 -50.4965 16.9939
      vertex -70.4382 -50.4965 16.9409
    endloop
  endfacet
  facet normal -0.843858 0 0.536566
    outer loop
      vertex -70.4045 -50.4965 16.9939
      vertex -70.4382 -52.47 16.9409
      vertex -70.4045 -52.47 16.9939
    endloop
  endfacet
  facet normal -0.843858 0 0.536566
    outer loop
      vertex -70.4382 50.4965 16.9409
      vertex -70.4045 52.47 16.9939
      vertex -70.4382 52.47 16.9409
    endloop
  endfacet
  facet normal -0.843858 0 0.536566
    outer loop
      vertex -70.4045 52.47 16.9939
      vertex -70.4382 50.4965 16.9409
      vertex -70.4045 50.4965 16.9939
    endloop
  endfacet
  facet normal 0.248529 0 0.968625
    outer loop
      vertex -69.9063 -50.4965 17.1911
      vertex -69.8455 -52.47 17.1755
      vertex -69.8455 -50.4965 17.1755
    endloop
  endfacet
  facet normal 0.248529 0 0.968625
    outer loop
      vertex -69.8455 -52.47 17.1755
      vertex -69.9063 -50.4965 17.1911
      vertex -69.9063 -52.47 17.1911
    endloop
  endfacet
  facet normal 0.248529 0 0.968625
    outer loop
      vertex -69.9063 52.47 17.1911
      vertex -69.8455 50.4965 17.1755
      vertex -69.8455 52.47 17.1755
    endloop
  endfacet
  facet normal 0.248529 0 0.968625
    outer loop
      vertex -69.8455 50.4965 17.1755
      vertex -69.9063 52.47 17.1911
      vertex -69.9063 50.4965 17.1911
    endloop
  endfacet
  facet normal -1 0 0
    outer loop
      vertex 82.1 50.4965 16.9
      vertex 82.1 50.5 18.245
      vertex 82.1 50.5 16.9
    endloop
  endfacet
  facet normal -1 -0 0
    outer loop
      vertex 82.1 50.5 18.245
      vertex 82.1 50.4965 16.9
      vertex 82.1 50.4965 18.245
    endloop
  endfacet
  facet normal -1 0 0
    outer loop
      vertex 82.1 -50.5 16.9
      vertex 82.1 -50.4965 18.245
      vertex 82.1 -50.4965 16.9
    endloop
  endfacet
  facet normal -1 -0 0
    outer loop
      vertex 82.1 -50.4965 18.245
      vertex 82.1 -50.5 16.9
      vertex 82.1 -50.5 18.245
    endloop
  endfacet
endsolid OpenSCAD_Model
